<svg fill="none" height="40" viewBox="0 0 136 40" width="136" xmlns="http://www.w3.org/2000/svg" xmlns:xlink="http://www.w3.org/1999/xlink"><clipPath id="a"><path d="m0 0h136v40h-136z"/></clipPath><g clip-path="url(#a)"><g fill="#fff"><path d="m56.0078 26.4231c-.8292 0-1.244-.4237-1.244-1.2711v-13.718h-5.0707c-.7174 0-1.0761-.3517-1.0761-1.0552 0-.68749.3587-1.03124 1.0761-1.03124h12.6051c.7335 0 1.1003.34375 1.1003 1.03124 0 .7035-.3668 1.0552-1.1003 1.0552h-5.0707v13.718c0 .8474-.4067 1.2711-1.2197 1.2711z"/><path d="m64.3837 26.4231c-.8135 0-1.2202-.4077-1.2202-1.2231v-9.593c0-.8154.391-1.2231 1.1722-1.2231.7811 0 1.1721.4077 1.1721 1.2231v1.0312c.3188-.7194.7973-1.271 1.4348-1.6548.6541-.3837 1.4433-.6075 2.3681-.6715.5899-.0479.9091.2718.9567.9593.0638.7035-.2788 1.0873-1.0285 1.1512l-.4543.048c-2.1208.2078-3.1812 1.303-3.1812 3.2856v5.444c0 .8154-.4067 1.2231-1.2197 1.2231z"/><path d="m75.701 26.4711c-.8134 0-1.5389-.1599-2.1768-.4797-.6375-.3197-1.148-.7514-1.5305-1.295-.3667-.5436-.5503-1.1592-.5503-1.8467 0-.8633.2154-1.5429.646-2.0385.4462-.4956 1.1717-.8554 2.1764-1.0792 1.0204-.2238 2.3919-.3358 4.114-.3358h.8134v-.6235c0-.9113-.1917-1.5669-.5742-1.9666-.3829-.3997-1.0127-.5996-1.8895-.5996-.5104 0-1.0447.064-1.6027.1919-.5423.1279-1.1084.3438-1.6983.6475-.3349.1599-.6137.1839-.8368.072-.2074-.1119-.351-.2878-.4309-.5276-.0795-.2398-.0714-.4877.0242-.7435s.2949-.4477.598-.5756c.7016-.3197 1.3952-.5515 2.0807-.6955.6856-.1598 1.3316-.2398 1.9376-.2398 1.5946 0 2.7744.3838 3.5398 1.1512.7655.7514 1.148 1.9346 1.148 3.5494v6.1635c0 .8154-.3745 1.2231-1.1242 1.2231-.7654 0-1.1479-.4077-1.1479-1.2231v-.8873c-.2873.6715-.7335 1.1991-1.3396 1.5828-.606.3837-1.3315.5756-2.1764.5756zm.4781-1.7268c.8611 0 1.5789-.3037 2.1526-.9113.5742-.6076.8615-1.375.8615-2.3023v-.6476h-.7896c-1.1641 0-2.0808.056-2.7506.168-.6537.1119-1.1241.3037-1.411.5755-.2712.2558-.4067.6156-.4067 1.0792 0 .6076.2074 1.1032.6217 1.487.4148.3677.9886.5515 1.7221.5515z"/><path d="m86.0124 26.4232c-.7973 0-1.196-.4077-1.196-1.2231v-14.7973c0-.81538.3987-1.22308 1.196-1.22308.8134 0 1.2197.4077 1.2197 1.22308v9.2573h.048l4.4727-4.4608c.255-.2558.4867-.4557.6936-.5995.2074-.144.4786-.2159.8135-.2159.4943 0 .813.1839.9567.5516.1593.3677.0637.7355-.2869 1.1032l-4.1858 4.149 4.6163 4.5807c.255.2558.3744.5116.3587.7674-.0161.2558-.1198.4717-.3111.6475-.1912.1599-.4305.2399-.7174.2399-.3668 0-.6617-.072-.8853-.2159-.2069-.1439-.4543-.3597-.7412-.6475l-4.7838-4.6526h-.048v4.2929c0 .8154-.4063 1.2231-1.2197 1.2231z"/><path d="m101.029 26.4711c-.701 0-1.4268-.08-2.1761-.2398-.7497-.1599-1.4271-.4317-2.0332-.8154-.2711-.1599-.4386-.3598-.5024-.5996-.0637-.2398-.0475-.4637.0481-.6715.0956-.2079.2469-.3517.4543-.4317.2231-.0959.4705-.072.7416.072.6218.3357 1.2198.5755 1.7939.7194.5738.1439 1.1398.2159 1.6978.2159.845 0 1.483-.1519 1.914-.4557.43-.3038.645-.7115.645-1.2231 0-.4157-.143-.7355-.43-.9593-.287-.2398-.717-.4237-1.292-.5516l-2.2717-.4557c-2.0094-.4157-3.0137-1.4549-3.0137-3.1177 0-1.1032.4382-1.9826 1.3154-2.6381s2.0251-.9833 3.444-.9833c1.435 0 2.671.3518 3.707 1.0552.256.16.407.3598.455.5996.048.2238.016.4397-.095.6475-.112.1919-.28.3278-.503.4077-.207.08-.454.048-.741-.0959-.479-.2878-.957-.4956-1.436-.6235-.478-.1439-.94-.2159-1.387-.2159-.829 0-1.4588.1599-1.8893.4797-.4306.3038-.6456.7195-.6456 1.2471 0 .7994.5261 1.311 1.5789 1.5348l2.272.4558c1.036.2078 1.818.5595 2.344 1.0551.542.4957.813 1.1672.813 2.0146 0 1.1192-.438 1.9986-1.315 2.6381-.878.6235-2.042.9353-3.493.9353z"/><path d="m113.383 26.4711c-1.467 0-2.559-.3757-3.277-1.1272-.717-.7514-1.076-1.8386-1.076-3.2616v-5.6599h-1.435c-.67 0-1.005-.3118-1.005-.9353 0-.6236.335-.9353 1.005-.9353h1.435v-2.4702c0-.8154.407-1.2231 1.22-1.2231.797 0 1.196.4077 1.196 1.2231v2.4702h2.798c.67 0 1.005.3117 1.005.9353 0 .6235-.335.9353-1.005.9353h-2.798v5.468c0 .8474.175 1.487.526 1.9186.367.4317.957.6475 1.77.6475.287 0 .534-.0239.742-.0719.207-.0639.39-.1039.549-.1199.176 0 .32.064.431.1918.112.112.167.3358.167.6716 0 .2558-.047.4876-.143.6955-.08.1918-.231.3198-.455.3837-.191.0799-.454.1439-.789.1918-.318.048-.606.072-.861.072z"/><path d="m120.875 26.4711c-.813 0-1.538-.1599-2.176-.4797-.638-.3197-1.148-.7514-1.531-1.295-.367-.5436-.55-1.1592-.55-1.8467 0-.8633.215-1.5429.645-2.0385.447-.4956 1.173-.8554 2.177-1.0792 1.021-.2238 2.392-.3358 4.114-.3358h.813v-.6235c0-.9113-.191-1.5669-.574-1.9666-.382-.3997-1.012-.5996-1.889-.5996-.51 0-1.045.064-1.603.1919-.542.1279-1.108.3438-1.698.6475-.335.1599-.614.1839-.837.072-.208-.1119-.351-.2878-.431-.5276-.079-.2398-.072-.4877.024-.7435s.295-.4477.598-.5756c.702-.3197 1.395-.5515 2.081-.6955.686-.1598 1.332-.2398 1.937-.2398 1.595 0 2.775.3838 3.541 1.1512.765.7514 1.148 1.9346 1.148 3.5494v6.1635c0 .8154-.375 1.2231-1.125 1.2231-.765 0-1.148-.4077-1.148-1.2231v-.8873c-.287.6715-.733 1.1991-1.339 1.5828s-1.332.5756-2.177.5756zm.479-1.7268c.861 0 1.578-.3037 2.152-.9113s.861-1.375.861-2.3023v-.6476h-.789c-1.164 0-2.081.056-2.751.168-.653.1119-1.124.3037-1.411.5755-.271.2558-.406.6156-.406 1.0792 0 .6076.207 1.1032.622 1.487.414.3677.988.5515 1.722.5515z"/><path d="m131.211 26.4231c-.813 0-1.22-.4077-1.22-1.2231v-9.593c0-.8154.391-1.2231 1.172-1.2231s1.172.4077 1.172 1.2231v1.0312c.319-.7194.797-1.271 1.435-1.6548.654-.3837 1.443-.6075 2.368-.6715.59-.0479.909.2718.957.9593.064.7035-.279 1.0873-1.029 1.1512l-.454.048c-2.121.2078-3.182 1.303-3.182 3.2856v5.444c0 .8154-.406 1.2231-1.219 1.2231z"/></g><path d="m26.2221 19.9854c3.224 2.2494 7.1367 3.5724 11.3533 3.5724-7.0609 0-12.8054 5.7598-12.8054 12.8397 0-4.2279-1.3205-8.1511-3.5628-11.3837 1.3603-1.9596 3.0606-3.6644 5.0149-5.0284zm-10.0299 0c-3.224 2.2494-7.13669 3.5724-11.35333 3.5724 7.06093 0 12.80543 5.7598 12.80543 12.8397 0-4.2279 1.3205-8.1511 3.5629-11.3837-1.3604-1.9596-3.0606-3.6644-5.015-5.0284zm5.015-5.0283c-2.2434-3.2327-3.5629-7.1558-3.5629-11.38374 0 7.07984-5.7445 12.83964-12.80543 12.83964 4.21664 0 8.12933 1.3231 11.35333 3.5724 1.9544-1.364 3.6546-3.0687 5.015-5.0283zm5.0149 5.0283c3.224-2.2493 7.1367-3.5724 11.3533-3.5724-7.0609 0-12.8054-5.7598-12.8054-12.83964 0 4.22794-1.3205 8.15104-3.5628 11.38374 1.3603 1.9596 3.0606 3.6643 5.0149 5.0283z" fill="#495057" opacity=".1"/><path d="m4.8379 16.4129c-1.96731 0-3.56288 1.5989-3.56288 3.5724 0 1.9736 1.59557 3.5724 3.56288 3.5724 4.21666 0 8.1293-1.323 11.3533-3.5724-3.224-2.2493-7.13566-3.5724-11.3533-3.5724z" fill="#e64980"/><path d="m17.6442 36.3987c0 1.9725 1.5946 3.5724 3.5629 3.5724s3.5629-1.5999 3.5629-3.5724c0-4.2279-1.3205-8.1511-3.5629-11.3837-2.2433 3.2326-3.5629 7.1548-3.5629 11.3837z" fill="#738ffc"/><path d="m37.5765 16.4129c-4.2167 0-8.1294 1.3231-11.3534 3.5724 3.224 2.2494 7.1367 3.5724 11.3534 3.5724 1.9673 0 3.5628-1.5988 3.5628-3.5724 0-1.9735-1.5955-3.5724-3.5628-3.5724z" fill="#39d9a9"/><path d="m24.77 3.5724c0-1.97257-1.5946-3.5724-3.5629-3.5724s-3.5629 1.59983-3.5629 3.5724c0 4.22794 1.3205 8.151 3.5629 11.3837 2.2434-3.2327 3.5629-7.15478 3.5629-11.3837z" fill="#fab005"/></g></svg>