<svg fill="none" height="32" width="32" xmlns="http://www.w3.org/2000/svg"><g fill="#738ffc"><path d="M20.011 15.988a15.893 15.893 0 009.107 2.858c-5.664 0-10.272 4.608-10.272 10.272 0-3.382-1.059-6.52-2.858-9.107a16.135 16.135 0 014.023-4.023zm-8.045 0a15.893 15.893 0 01-9.107 2.858c5.664 0 10.271 4.608 10.271 10.272 0-3.382 1.06-6.52 2.858-9.107a16.135 16.135 0 00-4.022-4.023zm4.022-4.022a15.893 15.893 0 01-2.858-9.107c0 5.664-4.607 10.271-10.271 10.271 3.382 0 6.52 1.059 9.107 2.858a16.135 16.135 0 004.022-4.022zm4.023 4.022a15.893 15.893 0 019.107-2.858c-5.664 0-10.272-4.607-10.272-10.271 0 3.382-1.059 6.52-2.858 9.107a16.135 16.135 0 004.023 4.022z" opacity=".3"/><path d="M2.858 13.13a2.858 2.858 0 100 5.716c3.382 0 6.52-1.058 9.107-2.858a15.891 15.891 0 00-9.107-2.858zM13.13 29.119a2.858 2.858 0 105.716 0 15.9 15.9 0 00-2.858-9.107 15.892 15.892 0 00-2.858 9.107zM29.119 13.13c-3.382 0-6.521 1.059-9.107 2.858a15.893 15.893 0 009.107 2.858 2.858 2.858 0 100-5.716zM18.846 2.858a2.858 2.858 0 10-5.716 0 15.9 15.9 0 002.858 9.107 15.891 15.891 0 002.858-9.107z"/></g></svg>