<svg fill="none" height="40" viewBox="0 0 91 40" width="91" xmlns="http://www.w3.org/2000/svg" xmlns:xlink="http://www.w3.org/1999/xlink"><clipPath id="a"><path d="m0 0h90.4348v40h-90.4348z"/></clipPath><g clip-path="url(#a)"><path d="m48.6493 26.336c-.8305 0-1.2456-.4237-1.2456-1.2711v-14.7013c0-.84735.4151-1.27104 1.2456-1.27104.8304 0 1.2455.42369 1.2455 1.27104v6.1875h9.4616v-6.1875c0-.84735.4151-1.27104 1.2455-1.27104.8142 0 1.2215.42369 1.2215 1.27104v14.7013c0 .8474-.4073 1.2711-1.2215 1.2711-.8304 0-1.2455-.4237-1.2455-1.2711v-6.4273h-9.4616v6.4273c0 .8474-.4151 1.2711-1.2455 1.2711z" fill="#fff"/><path d="m66.7003 11.8505c-.479 0-.8541-.1199-1.1258-.3597-.2554-.2398-.3832-.5756-.3832-1.0073 0-.9113.503-1.36698 1.509-1.36698s1.509.45568 1.509 1.36698c0 .9114-.503 1.367-1.509 1.367zm0 14.4615c-.7983 0-1.1975-.4397-1.1975-1.319v-9.3532c0-.8634.3992-1.2951 1.1975-1.2951.8145 0 1.2218.4317 1.2218 1.2951v9.3532c0 .8793-.4073 1.319-1.2218 1.319z" fill="#fff"/><path d="m72.549 26.336c-.8146 0-1.2219-.4077-1.2219-1.2231v-9.593c0-.8154.3914-1.2231 1.1738-1.2231s1.1738.4077 1.1738 1.2231v1.0312c.3193-.7194.7983-1.271 1.4373-1.6548.6546-.3837 1.4451-.6075 2.3713-.6715.5909-.048.9102.2718.9579.9593.064.7035-.2794 1.0872-1.0297 1.1512l-.4553.048c-2.1236.2078-3.1858 1.303-3.1858 3.2856v5.444c0 .8154-.4072 1.2231-1.2214 1.2231z" fill="#fff"/><path d="m85.5847 26.384c-1.9163 0-3.4256-.5356-4.5274-1.6068-1.1017-1.0873-1.6528-2.5662-1.6528-4.4368 0-1.1992.2395-2.2544.7185-3.1657.4952-.9274 1.1738-1.6468 2.0361-2.1585.8625-.5116 1.8526-.7674 2.9703-.7674 1.6128 0 2.8824.5196 3.8085 1.5589.9262 1.0232 1.3893 2.4382 1.3893 4.2449 0 .5436-.3193.8154-.958.8154h-7.6171c.1756 2.4302 1.461 3.6453 3.8563 3.6453.4793 0 .9823-.0559 1.509-.1678.527-.1279 1.0381-.3518 1.533-.6716.3356-.1918.6231-.2558.8626-.1918.2554.048.439.1838.5507.4077.1119.2078.1278.4477.048.7195-.0639.2558-.2476.4796-.551.6715-.5429.3677-1.1816.6475-1.9163.8394-.7185.1758-1.4052.2638-2.0597.2638zm-.3596-10.4324c-1.006 0-1.8043.3117-2.3953.9353-.5906.6235-.9501 1.4549-1.0777 2.4942h6.5391c-.0477-1.0872-.3353-1.9266-.8623-2.5182-.527-.6076-1.2614-.9113-2.2038-.9113z" fill="#fff"/><g fill="#738ffc"><path d="m24.983 19.9855c3.2287 2.2494 7.1469 3.5724 11.3699 3.5724-7.0713 0-12.8241 5.7598-12.8241 12.8396 0-4.2278-1.3224-8.151-3.568-11.3836 1.3623-1.9596 3.065-3.6644 5.0222-5.0284zm-10.0444 0c-3.2287 2.2494-7.14704 3.5724-11.36981 3.5724 7.07121 0 12.82401 5.7598 12.82401 12.8396 0-4.2278 1.3224-8.151 3.568-11.3836-1.3623-1.9596-3.065-3.6644-5.0222-5.0284zm5.0222-5.0283c-2.2466-3.2327-3.568-7.15581-3.568-11.38371 0 7.07981-5.7528 12.83961-12.82401 12.83961 4.22277 0 8.14111 1.3231 11.36981 3.5724 1.9572-1.364 3.6599-3.0687 5.0222-5.0283zm5.0222 5.0283c3.2287-2.2493 7.1469-3.5724 11.3699-3.5724-7.0713 0-12.8241-5.7598-12.8241-12.83961 0 4.2279-1.3224 8.15101-3.568 11.38371 1.3623 1.9596 3.065 3.6643 5.0222 5.0283z" opacity=".3"/><path d="m3.56803 16.4131c-1.97015 0-3.56803 1.5988-3.56803 3.5724s1.59788 3.5724 3.56803 3.5724c4.22277 0 8.14117-1.3231 11.36977-3.5724-3.2286-2.2494-7.146-3.5724-11.36977-3.5724z"/><path d="m16.393 36.3984c0 1.9725 1.5969 3.5725 3.568 3.5725 1.9712 0 3.5681-1.6 3.5681-3.5725 0-4.2278-1.3224-8.151-3.5681-11.3836-2.2466 3.2326-3.568 7.1549-3.568 11.3836z"/><path d="m36.3542 16.4131c-4.223 0-8.1413 1.323-11.3699 3.5724 3.2286 2.2493 7.1469 3.5724 11.3699 3.5724 1.9699 0 3.5678-1.5988 3.5678-3.5724s-1.5979-3.5724-3.5678-3.5724z"/><path d="m23.5291 3.57241c0-1.97258-1.5969-3.57241-3.5681-3.57241-1.9711 0-3.568 1.59983-3.568 3.57241 0 4.2279 1.3224 8.15109 3.568 11.38369 2.2467-3.2326 3.5681-7.15479 3.5681-11.38369z"/></g></g></svg>