<svg fill="none" height="40" viewBox="0 0 132 40" width="132" xmlns="http://www.w3.org/2000/svg"><g fill="#fff"><path d="m48.5746 26.3498c-.8291 0-1.2437-.4236-1.2437-1.271v-14.5335c0-.84733.4226-1.27102 1.2676-1.27102h5.7161c1.8177 0 3.2208.45567 4.2093 1.36702.9886.8953 1.4829 2.1584 1.4829 3.7892 0 1.6468-.4943 2.9259-1.4829 3.8372-.9885.8954-2.3916 1.343-4.2093 1.343h-4.4963v5.4681c0 .8474-.4146 1.271-1.2437 1.271zm1.2437-8.7296h4.1375c2.4236 0 3.6354-1.0632 3.6354-3.1897 0-2.1104-1.2118-3.1657-3.6354-3.1657h-4.1375z"/><path d="m67.3058 26.3978c-1.9133 0-3.4201-.5356-4.5202-1.6068-1.1002-1.0872-1.6503-2.5662-1.6503-4.4368 0-1.1991.2392-2.2544.7175-3.1657.4943-.9273 1.1719-1.6468 2.0329-2.1584s1.8496-.7675 2.9657-.7675c1.6104 0 2.878.5197 3.8027 1.5589.9248 1.0233 1.3872 2.4382 1.3872 4.2449 0 .5436-.3189.8154-.9567.8154h-7.6054c.1753 2.4303 1.4589 3.6454 3.8505 3.6454.4784 0 .9806-.056 1.5068-.1679.5261-.1279 1.0364-.3518 1.5306-.6715.3349-.1919.6219-.2558.861-.1919.2552.048.4385.1839.5501.4077.1116.2079.1276.4477.0479.7195-.0638.2558-.2472.4797-.5501.6715-.5421.3677-1.1799.6475-1.9134.8394-.7175.1759-1.4031.2638-2.0568.2638zm-.3587-10.4324c-1.0045 0-1.8018.3118-2.3917.9353-.5899.6236-.9487 1.455-1.0762 2.4942h6.5292c-.0478-1.0872-.3348-1.9266-.861-2.5182-.5262-.6075-1.2596-.9113-2.2003-.9113z"/><path d="m75.8945 26.3498c-.8132 0-1.2197-.4077-1.2197-1.2231v-9.593c0-.8154.3906-1.2231 1.1719-1.2231s1.1719.4077 1.1719 1.2231v1.0313c.3189-.7195.7972-1.2711 1.435-1.6548.6537-.3838 1.443-.6076 2.3677-.6715.59-.048.9089.2718.9567.9593.0638.7034-.279 1.0872-1.0284 1.1511l-.4544.048c-2.1206.2078-3.1809 1.303-3.1809 3.2856v5.444c0 .8154-.4066 1.2231-1.2198 1.2231z"/><path d="m86.1641 26.3498c-.8132 0-1.2198-.4077-1.2198-1.2231v-8.7776h-1.3393c-.6537 0-.9806-.3118-.9806-.9353s.3269-.9353.9806-.9353h1.3393v-.2159c0-1.5828.3907-2.7739 1.172-3.5734.7812-.81536 1.9213-1.29501 3.42-1.43891l.7415-.04796c.3348-.03198.5819.03997.7414.21584.1754.15988.2631.36773.2631.62353 0 .2398-.0638.4557-.1914.6475-.1275.1919-.3189.3038-.574.3358l-.4544.024c-.9407.0639-1.6263.3277-2.0568.7914s-.6458 1.1592-.6458 2.0865v.5516h2.3199c.6697 0 1.0045.3118 1.0045.9353s-.3348.9353-1.0045.9353h-2.3199v8.7776c0 .8154-.3986 1.2231-1.1958 1.2231z"/><path d="m97.2855 26.3978c-1.1799 0-2.2003-.2478-3.0613-.7434-.861-.4957-1.5307-1.1912-2.009-2.0865-.4624-.9114-.6936-1.9906-.6936-3.2377s.2312-2.3183.6936-3.2136c.4783-.9114 1.148-1.6149 2.009-2.1105s1.8814-.7435 3.0613-.7435c1.148 0 2.1525.2479 3.0135.7435s1.531 1.1991 2.009 2.1105c.478.8953.718 1.9665.718 3.2136s-.24 2.3263-.718 3.2377c-.478.8953-1.148 1.5908-2.009 2.0865-.861.4956-1.8655.7434-3.0135.7434zm0-1.8706c.9886 0 1.7858-.3598 2.3917-1.0792.6058-.7195.9088-1.7588.9088-3.1178s-.303-2.3902-.9088-3.0937c-.6059-.7195-1.4031-1.0792-2.3917-1.0792-1.0045 0-1.8097.3597-2.4156 1.0792-.6059.7035-.9088 1.7347-.9088 3.0937s.3029 2.3983.9088 3.1178c.6059.7194 1.4111 1.0792 2.4156 1.0792z"/><path d="m106.958 26.3498c-.813 0-1.22-.4077-1.22-1.2231v-9.593c0-.8154.391-1.2231 1.172-1.2231.782 0 1.172.4077 1.172 1.2231v1.0313c.319-.7195.797-1.2711 1.435-1.6548.654-.3838 1.443-.6076 2.368-.6715.59-.048.909.2718.957.9593.063.7034-.279 1.0872-1.029 1.1511l-.454.048c-2.121.2078-3.181 1.303-3.181 3.2856v5.444c0 .8154-.407 1.2231-1.22 1.2231z"/><path d="m115.904 26.3498c-.797 0-1.196-.4077-1.196-1.2231v-9.593c0-.8154.391-1.2231 1.172-1.2231s1.172.4077 1.172 1.2231v.8394c.351-.6715.837-1.1911 1.459-1.5589.622-.3677 1.347-.5516 2.176-.5516 1.786 0 2.942.7835 3.468 2.3503.367-.7354.893-1.311 1.579-1.7267.685-.4157 1.467-.6236 2.344-.6236 2.615 0 3.922 1.5669 3.922 4.7006v6.1635c0 .8154-.407 1.2231-1.22 1.2231-.797 0-1.196-.4077-1.196-1.2231v-6.0436c0-.9912-.175-1.7187-.526-2.1824-.335-.4636-.893-.6955-1.674-.6955-.877 0-1.57.3118-2.081.9353-.51.6076-.765 1.439-.765 2.4942v5.492c0 .8154-.399 1.2231-1.196 1.2231-.813 0-1.22-.4077-1.22-1.2231v-6.0436c0-.9912-.167-1.7187-.502-2.1824-.335-.4636-.893-.6955-1.674-.6955-.877 0-1.571.3118-2.081.9353-.494.6076-.741 1.439-.741 2.4942v5.492c0 .8154-.407 1.2231-1.22 1.2231z"/></g><path d="m24.945 19.9854c3.2237 2.2494 7.1361 3.5724 11.3524 3.5724-7.0604 0-12.8044 5.7598-12.8044 12.8397 0-4.228-1.3204-8.1511-3.5626-11.3837 1.3603-1.9596 3.0604-3.6644 5.0146-5.0284zm-10.0291 0c-3.2237 2.2494-7.13612 3.5724-11.35242 3.5724 7.06042 0 12.80442 5.7598 12.80442 12.8397 0-4.228 1.3204-8.1511 3.5625-11.3837-1.3602-1.9596-3.0603-3.6644-5.0145-5.0284zm5.0145-5.0283c-2.2431-3.2327-3.5625-7.15581-3.5625-11.38374 0 7.07984-5.744 12.83964-12.80442 12.83964 4.2163 0 8.12872 1.3231 11.35242 3.5724 1.9542-1.364 3.6543-3.0687 5.0145-5.0283zm5.0146 5.0283c3.2237-2.2493 7.1361-3.5724 11.3524-3.5724-7.0604 0-12.8044-5.7598-12.8044-12.83964 0 4.22793-1.3204 8.15104-3.5626 11.38374 1.3603 1.9596 3.0604 3.6643 5.0146 5.0283z" fill="#fab005" opacity=".3"/><path d="m3.56259 16.4131c-1.96715 0-3.56259 1.5988-3.56259 3.5724 0 1.9735 1.59544 3.5724 3.56259 3.5724 4.2163 0 8.12871-1.3231 11.35241-3.5724-3.2237-2.2494-7.13511-3.5724-11.35241-3.5724z" fill="#fab005"/><path d="m16.368 36.3985c0 1.9726 1.5944 3.5724 3.5625 3.5724 1.9682 0 3.5626-1.5998 3.5626-3.5724 0-4.2279-1.3204-8.1511-3.5626-11.3837-2.2431 3.2326-3.5625 7.1548-3.5625 11.3837z" fill="#fab005"/><path d="m36.2985 16.4131c-4.2163 0-8.1287 1.323-11.3524 3.5724 3.2237 2.2493 7.1361 3.5724 11.3524 3.5724 1.9672 0 3.5626-1.5989 3.5626-3.5724 0-1.9736-1.5954-3.5724-3.5626-3.5724z" fill="#fab005"/><path d="m23.4931 3.5724c0-1.97256-1.5944-3.5724-3.5626-3.5724-1.9681 0-3.5625 1.59984-3.5625 3.5724 0 4.22792 1.3204 8.1511 3.5625 11.3837 2.2432-3.2326 3.5626-7.15478 3.5626-11.3837z" fill="#fab005"/></svg>