<svg fill="none" height="40" viewBox="0 0 132 40" width="132" xmlns="http://www.w3.org/2000/svg" xmlns:xlink="http://www.w3.org/1999/xlink"><clipPath id="a"><path d="m0 0h131.892v40h-131.892z"/></clipPath><g clip-path="url(#a)"><path d="m24.9152 19.9854c3.2199 2.2494 7.1276 3.5725 11.339 3.5725-7.0521 0-12.7892 5.7598-12.7892 12.8397 0-4.228-1.3188-8.1512-3.5583-11.3838 1.3586-1.9596 3.0567-3.6644 5.0085-5.0284zm-10.017 0c-3.2199 2.2494-7.12761 3.5725-11.33887 3.5725 7.05187 0 12.78907 5.7598 12.78907 12.8397 0-4.228 1.3188-8.1512 3.5583-11.3838-1.3587-1.9596-3.0567-3.6644-5.0085-5.0284zm5.0085-5.0283c-2.2405-3.2327-3.5583-7.15579-3.5583-11.38369 0 7.07979-5.7372 12.83959-12.78907 12.83959 4.21126 0 8.11897 1.3231 11.33887 3.5724 1.9518-1.364 3.6498-3.0687 5.0085-5.0283zm5.0085 5.0283c3.2199-2.2493 7.1276-3.5724 11.339-3.5724-7.0521 0-12.7892-5.7598-12.7892-12.83959 0 4.2279-1.3188 8.15099-3.5583 11.38369 1.3586 1.9596 3.0567 3.6643 5.0085 5.0283z" fill="#fab005" opacity=".2"/><path d="m3.55833 16.4131c-1.9648 0-3.55833 1.5988-3.55833 3.5723 0 1.9736 1.59353 3.5725 3.55833 3.5725 4.21124 0 8.11897-1.3231 11.33887-3.5725-3.2199-2.2493-7.12664-3.5723-11.33887-3.5723z" fill="#fab005"/><path d="m16.3484 36.3986c0 1.9724 1.5925 3.5724 3.5583 3.5724s3.5583-1.6 3.5583-3.5724c0-4.228-1.3188-8.1511-3.5583-11.3838-2.2405 3.2327-3.5583 7.1548-3.5583 11.3838z" fill="#fab005"/><path d="m36.2552 16.4131c-4.2114 0-8.1191 1.323-11.339 3.5723 3.2199 2.2494 7.1276 3.5725 11.339 3.5725 1.9646 0 3.5583-1.5989 3.5583-3.5725 0-1.9735-1.5937-3.5723-3.5583-3.5723z" fill="#fab005"/><path d="m23.465 3.57241c0-1.97258-1.5925-3.57241-3.5583-3.57241s-3.5583 1.59983-3.5583 3.57241c0 4.2279 1.3188 8.15109 3.5583 11.38369 2.2405-3.2326 3.5583-7.15479 3.5583-11.38369z" fill="#fab005"/><g fill="#000"><path d="m48.5166 26.3499c-.8284 0-1.2423-.4237-1.2423-1.2711v-14.5334c0-.8474.4221-1.27109 1.266-1.27109h5.7091c1.8156 0 3.217.45565 4.2044 1.36699.9875.8954 1.4811 2.1584 1.4811 3.7892 0 1.6468-.4936 2.9259-1.4811 3.8373-.9874.8953-2.3888 1.343-4.2044 1.343h-4.4908v5.468c0 .8474-.4139 1.2711-1.242 1.2711zm1.242-8.7297h4.1326c2.4208 0 3.6312-1.0632 3.6312-3.1897 0-2.1104-1.2104-3.1657-3.6312-3.1657h-4.1326z"/><path d="m67.2254 26.3978c-1.9111 0-3.4161-.5356-4.5149-1.6068-1.0988-1.0872-1.6483-2.5661-1.6483-4.4368 0-1.1991.2387-2.2543.7165-3.1657.4939-.9273 1.1705-1.6468 2.0306-2.1584.86-.5116 1.8475-.7675 2.962-.7675 1.6085 0 2.8745.5197 3.7985 1.5589.9235 1.0233 1.3852 2.4383 1.3852 4.2449 0 .5436-.3184.8154-.9552.8154h-7.5965c.1751 2.4303 1.457 3.6454 3.8458 3.6454.4778 0 .9796-.056 1.5051-.1679.5255-.1279 1.0352-.3517 1.5288-.6715.3345-.1919.6209-.2558.86-.1919.2549.048.4379.1839.5492.4078.1116.2078.1274.4476.0481.7194-.0639.2558-.247.4797-.5496.6715-.5416.3678-1.1784.6476-1.911.8394-.7168.1759-1.4014.2638-2.0543.2638zm-.3586-10.4324c-1.0033 0-1.7994.3118-2.3885.9354-.5894.6235-.9476 1.4549-1.075 2.4941h6.5214c-.0477-1.0872-.3345-1.9266-.86-2.5181-.5255-.6076-1.2582-.9114-2.1979-.9114z"/><path d="m75.8039 26.3499c-.8124 0-1.2183-.4077-1.2183-1.2231v-9.5931c0-.8154.3898-1.2231 1.1702-1.2231.7803 0 1.1705.4077 1.1705 1.2231v1.0313c.3187-.7195.7965-1.2711 1.4333-1.6548.6529-.3837 1.4412-.6076 2.3651-.6715.5891-.048.9078.2718.9555.9593.0636.7035-.2788 1.0872-1.0273 1.1511l-.4537.048c-2.1182.2079-3.1771 1.3031-3.1771 3.2856v5.4441c0 .8154-.4063 1.2231-1.2182 1.2231z"/><path d="m86.0608 26.3499c-.8119 0-1.2182-.4077-1.2182-1.2231v-8.7777h-1.3375c-.6529 0-.9796-.3117-.9796-.9353 0-.6235.3267-.9353.9796-.9353h1.3375v-.2158c0-1.5829.3901-2.774 1.1705-3.5734.7804-.81543 1.919-1.29509 3.4161-1.43898l.7406-.04797c.3345-.03196.5811.03997.7405.21583.1751.1599.2627.36776.2627.62352 0 .2399-.0639.4557-.1909.6476-.1275.1918-.3188.3037-.5736.3357l-.4538.024c-.9397.064-1.6242.3278-2.0542.7914-.4301.4637-.6451 1.1592-.6451 2.0865v.5516h2.3171c.669 0 1.0032.3118 1.0032.9353 0 .6236-.3342.9353-1.0032.9353h-2.3171v8.7777c0 .8154-.3981 1.2231-1.1946 1.2231z"/><path d="m97.1689 26.3978c-1.1784 0-2.1975-.2478-3.0575-.7434-.8601-.4957-1.5288-1.1912-2.0066-2.0865-.4619-.9114-.6928-1.9906-.6928-3.2377s.2309-2.3183.6928-3.2136c.4778-.9114 1.1465-1.6148 2.0066-2.1105.86-.4956 1.8791-.7435 3.0575-.7435 1.1469 0 2.1501.2479 3.0101.7435.86.4957 1.529 1.1991 2.007 2.1105.477.8953.716 1.9665.716 3.2136s-.239 2.3263-.716 3.2377c-.478.8953-1.147 1.5908-2.007 2.0865-.86.4956-1.8632.7434-3.0101.7434zm0-1.8706c.9875 0 1.7836-.3598 2.3888-1.0792.6053-.7195.9083-1.7588.9083-3.1178s-.303-2.3902-.9083-3.0937c-.6052-.7195-1.4013-1.0792-2.3888-1.0792-1.0033 0-1.8073.3597-2.4125 1.0792-.6052.7035-.9078 1.7347-.9078 3.0937s.3026 2.3983.9078 3.1178c.6052.7194 1.4092 1.0792 2.4125 1.0792z"/><path d="m106.83 26.3499c-.812 0-1.218-.4077-1.218-1.2231v-9.5931c0-.8154.39-1.2231 1.17-1.2231.781 0 1.171.4077 1.171 1.2231v1.0313c.318-.7195.796-1.2711 1.433-1.6548.653-.3837 1.441-.6076 2.365-.6715.589-.048.908.2718.955.9593.064.7035-.278 1.0872-1.027 1.1511l-.454.048c-2.117.2079-3.177 1.3031-3.177 3.2856v5.4441c0 .8154-.406 1.2231-1.218 1.2231z"/><path d="m115.765 26.3499c-.796 0-1.194-.4077-1.194-1.2231v-9.5931c0-.8154.39-1.2231 1.17-1.2231.781 0 1.171.4077 1.171 1.2231v.8394c.35-.6715.836-1.1911 1.457-1.5588.621-.3678 1.346-.5517 2.174-.5517 1.784 0 2.938.7835 3.464 2.3504.366-.7355.892-1.3111 1.576-1.7268.685-.4157 1.465-.6236 2.342-.6236 2.611 0 3.917 1.5669 3.917 4.7006v6.1636c0 .8154-.406 1.2231-1.218 1.2231-.797 0-1.195-.4077-1.195-1.2231v-6.0436c0-.9913-.175-1.7188-.525-2.1824-.335-.4637-.892-.6956-1.672-.6956-.876 0-1.569.3118-2.079.9353-.509.6076-.764 1.439-.764 2.4943v5.492c0 .8154-.398 1.2231-1.194 1.2231-.813 0-1.219-.4077-1.219-1.2231v-6.0436c0-.9913-.167-1.7188-.501-2.1824-.335-.4637-.892-.6956-1.672-.6956-.876 0-1.569.3118-2.079.9353-.493.6076-.74 1.439-.74 2.4943v5.492c0 .8154-.406 1.2231-1.219 1.2231z"/></g></g></svg>