<svg fill="none" height="32" width="32" xmlns="http://www.w3.org/2000/svg"><g fill="#fab005"><path d="M19.983 16A15.736 15.736 0 0029 18.83c-5.608 0-10.17 4.562-10.17 10.17 0-3.349-1.05-6.457-2.83-9.017A15.976 15.976 0 0119.983 16zm-7.966 0A15.736 15.736 0 013 18.83c5.608 0 10.17 4.562 10.17 10.17 0-3.349 1.05-6.457 2.83-9.017A15.976 15.976 0 0012.017 16zM16 12.017A15.737 15.737 0 0113.17 3c0 5.608-4.562 10.17-10.17 10.17 3.349 0 6.457 1.048 9.017 2.83A15.976 15.976 0 0016 12.017zM19.983 16A15.736 15.736 0 0129 13.17c-5.608 0-10.17-4.562-10.17-10.17 0 3.349-1.05 6.456-2.83 9.017A15.976 15.976 0 0019.983 16z" opacity=".3"/><path d="M2.866 13C1.284 13 0 14.343 0 16s1.284 3 2.866 3c3.393 0 6.54-1.111 9.134-3-2.594-1.889-5.74-3-9.134-3zM13 29.134C13 30.716 14.343 32 16 32s3-1.284 3-2.866c0-3.393-1.112-6.54-3-9.134-1.889 2.594-3 5.74-3 9.134zM29.134 13c-3.393 0-6.54 1.111-9.134 3 2.594 1.889 5.741 3 9.134 3C30.716 19 32 17.657 32 16s-1.284-3-2.866-3zM19 2.866C19 1.284 17.657 0 16 0s-3 1.284-3 2.866c0 3.393 1.112 6.54 3 9.134 1.889-2.594 3-5.74 3-9.134z"/></g></svg>