<svg fill="none" height="40" viewBox="0 0 106 40" width="106" xmlns="http://www.w3.org/2000/svg"><g fill="#39d9a9"><path d="m25.0568 19.9854c3.2382 2.2494 7.168 3.5724 11.4032 3.5724-7.092 0-12.8617 5.7598-12.8617 12.8397 0-4.228-1.3263-8.1511-3.5785-11.3837 1.3663-1.9596 3.074-3.6644 5.037-5.0284zm-10.074 0c-3.2382 2.2494-7.16808 3.5724-11.40327 3.5724 7.09197 0 12.86167 5.7598 12.86167 12.8397 0-4.228 1.3264-8.1511 3.5786-11.3837-1.3664-1.9596-3.0741-3.6644-5.037-5.0284zm5.037-5.0283c-2.2532-3.2327-3.5786-7.15581-3.5786-11.38374 0 7.07984-5.7697 12.83964-12.86167 12.83964 4.23519 0 8.16507 1.3231 11.40327 3.5724 1.9629-1.364 3.6706-3.0687 5.037-5.0283zm5.037 5.0283c3.2382-2.2493 7.168-3.5724 11.4032-3.5724-7.092 0-12.8617-5.7598-12.8617-12.83964 0 4.22793-1.3263 8.15104-3.5785 11.38374 1.3663 1.9596 3.074 3.6643 5.037 5.0283z" opacity=".3"/><path d="m3.57854 16.4131c-1.97596 0-3.57854 1.5988-3.57854 3.5724 0 1.9735 1.60258 3.5724 3.57854 3.5724 4.23519 0 8.16506-1.3231 11.40326-3.5724-3.2382-2.2494-7.16707-3.5724-11.40326-3.5724z"/><path d="m16.4413 36.3985c0 1.9726 1.6015 3.5724 3.5785 3.5724 1.9769 0 3.5785-1.5998 3.5785-3.5724 0-4.2279-1.3263-8.1511-3.5785-11.3837-2.2532 3.2326-3.5785 7.1548-3.5785 11.3837z"/><path d="m36.461 16.4131c-4.2351 0-8.165 1.323-11.4032 3.5724 3.2382 2.2493 7.1681 3.5724 11.4032 3.5724 1.976 0 3.5786-1.5989 3.5786-3.5724 0-1.9736-1.6026-3.5724-3.5786-3.5724z"/><path d="m23.5983 3.5724c0-1.97256-1.6016-3.5724-3.5785-3.5724-1.977 0-3.5785 1.59984-3.5785 3.5724 0 4.22792 1.3263 8.1511 3.5785 11.3837 2.2532-3.2326 3.5785-7.15478 3.5785-11.3837z"/></g><path d="m48.8232 26.1612c-.8488 0-1.2732-.4237-1.2732-1.2711v-14.4614c0-.84742.4164-1.27111 1.2492-1.27111s1.2493.42369 1.2493 1.27111v13.5981h7.4473c.7368 0 1.1051.3517 1.1051 1.0552 0 .7195-.3683 1.0792-1.1051 1.0792z" fill="#fff"/><path d="m65.9252 26.3771c-1.9219 0-3.4354-.5357-4.5405-1.6069-1.1051-1.0872-1.6577-2.5661-1.6577-4.4367 0-1.1992.2403-2.2544.7207-3.1657.4965-.9274 1.1772-1.6468 2.0421-2.1585.8648-.5116 1.8578-.7674 2.9789-.7674 1.6176 0 2.8909.5196 3.8198 1.5589.9289 1.0232 1.3934 2.4382 1.3934 4.2449 0 .5436-.3204.8154-.961.8154h-7.6395c.1761 2.4302 1.4654 3.6453 3.8678 3.6453.4805 0 .985-.0559 1.5135-.1679.5285-.1279 1.041-.3517 1.5375-.6715.3363-.1918.6246-.2558.8649-.1918.2562.0479.4404.1838.5525.4077.1121.2078.1281.4476.048.7194-.064.2559-.2482.4797-.5525.6716-.5445.3677-1.1852.6475-1.9219.8393-.7207.1759-1.4094.2639-2.066.2639zm-.3604-10.4324c-1.009 0-1.8098.3117-2.4024.9353-.5926.6235-.9529 1.4549-1.081 2.4942h6.5584c-.048-1.0873-.3363-1.9266-.8648-2.5182-.5285-.6076-1.2653-.9113-2.2102-.9113z" fill="#fff"/><path d="m77.0748 26.3771c-.8168 0-1.5455-.1599-2.1862-.4797-.6406-.3198-1.1531-.7514-1.5375-1.2951-.3683-.5436-.5525-1.1591-.5525-1.8466 0-.8634.2162-1.5429.6486-2.0385.4485-.4957 1.1772-.8554 2.1862-1.0792 1.025-.2239 2.4024-.3358 4.1321-.3358h.8168v-.6235c0-.9114-.1922-1.5669-.5766-1.9666s-1.017-.5996-1.8979-.5996c-.5125 0-1.049.064-1.6096.1919-.5445.1279-1.1131.3437-1.7057.6475-.3363.1599-.6166.1839-.8408.072-.2082-.112-.3523-.2878-.4324-.5276-.0801-.2399-.0721-.4877.024-.7435s.2963-.4477.6006-.5756c.7047-.3198 1.4014-.5516 2.0901-.6955.6887-.1599 1.3373-.2398 1.9459-.2398 1.6016 0 2.7868.3837 3.5555 1.1512.7688.7514 1.1532 1.9345 1.1532 3.5494v6.1635c0 .8154-.3764 1.2231-1.1292 1.2231-.7687 0-1.1531-.4077-1.1531-1.2231v-.8874c-.2883.6715-.7367 1.1992-1.3453 1.5829s-1.3374.5756-2.1862.5756zm.4805-1.7268c.8648 0 1.5855-.3038 2.1621-.9113.5766-.6076.8649-1.375.8649-2.3023v-.6476h-.7928c-1.1692 0-2.0901.056-2.7627.1679-.6567.1119-1.1292.3038-1.4174.5756-.2723.2558-.4084.6155-.4084 1.0792 0 .6076.2082 1.1032.6246 1.4869.4164.3677.993.5516 1.7297.5516z" fill="#fff"/><path d="m87.4557 26.3291c-.8168 0-1.2252-.4077-1.2252-1.2231v-9.593c0-.8154.3924-1.2231 1.1771-1.2231.7848 0 1.1772.4077 1.1772 1.2231v1.0312c.3203-.7195.8008-1.2711 1.4414-1.6548.6567-.3837 1.4495-.6075 2.3784-.6715.5926-.048.9129.2718.9609.9593.0641.7035-.2802 1.0872-1.033 1.1512l-.4564.0479c-2.1301.2079-3.1952 1.3031-3.1952 3.2856v5.4441c0 .8154-.4084 1.2231-1.2252 1.2231z" fill="#fff"/><path d="m96.3937 26.3291c-.8008 0-1.2012-.4077-1.2012-1.2231v-9.593c0-.8154.3924-1.2231 1.1771-1.2231.7848 0 1.1772.4077 1.1772 1.2231v.8873c.4004-.7035.9449-1.2391 1.6336-1.6068.7047-.3677 1.4896-.5516 2.3546-.5516 2.77 0 4.156 1.5669 4.156 4.7006v6.1635c0 .8154-.401 1.2231-1.201 1.2231-.817 0-1.226-.4077-1.226-1.2231v-6.0196c0-1.0073-.2-1.7428-.6-2.2064-.385-.4637-.993-.6955-1.826-.6955-.9769 0-1.7617.3118-2.3543.9353-.5766.6076-.8648 1.415-.8648 2.4222v5.564c0 .8154-.4084 1.2231-1.2252 1.2231z" fill="#fff"/></svg>