<svg fill="none" height="40" viewBox="0 0 132 40" width="132" xmlns="http://www.w3.org/2000/svg"><path d="m25.0829 19.9854c3.2416 2.2494 7.1755 3.5724 11.4151 3.5724-7.0994 0-12.8751 5.7598-12.8751 12.8397 0-4.228-1.3277-8.1511-3.5823-11.3837 1.3678-1.9596 3.0773-3.6644 5.0423-5.0284zm-10.0845 0c-3.2416 2.2494-7.17555 3.5724-11.41515 3.5724 7.09945 0 12.87515 5.7598 12.87515 12.8397 0-4.228 1.3277-8.1511 3.5822-11.3837-1.3677-1.9596-3.0772-3.6644-5.0422-5.0284zm5.0422-5.0283c-2.2555-3.2327-3.5822-7.15581-3.5822-11.38374 0 7.07984-5.7757 12.83964-12.87515 12.83964 4.2396 0 8.17355 1.3231 11.41515 3.5724 1.965-1.364 3.6745-3.0687 5.0422-5.0283zm5.0423 5.0283c3.2416-2.2493 7.1755-3.5724 11.4151-3.5724-7.0994 0-12.8751-5.7598-12.8751-12.83964 0 4.22793-1.3277 8.15104-3.5823 11.38374 1.3678 1.9596 3.0773 3.6643 5.0423 5.0283z" fill="#e64980" opacity=".3"/><path d="m3.58227 16.4131c-1.97802 0-3.58227 1.5988-3.58227 3.5724 0 1.9735 1.60425 3.5724 3.58227 3.5724 4.2396 0 8.17363-1.3231 11.41513-3.5724-3.2415-2.2494-7.17453-3.5724-11.41513-3.5724z" fill="#e64980"/><path d="m16.4584 36.3985c0 1.9726 1.6032 3.5724 3.5823 3.5724 1.979 0 3.5822-1.5998 3.5822-3.5724 0-4.2279-1.3277-8.1511-3.5822-11.3837-2.2556 3.2326-3.5823 7.1548-3.5823 11.3837z" fill="#e64980"/><path d="m36.4991 16.4131c-4.2397 0-8.1736 1.323-11.4152 3.5724 3.2416 2.2493 7.1755 3.5724 11.4152 3.5724 1.978 0 3.5822-1.5989 3.5822-3.5724 0-1.9736-1.6042-3.5724-3.5822-3.5724z" fill="#e64980"/><path d="m23.6229 3.5724c0-1.97256-1.6032-3.5724-3.5822-3.5724-1.9791 0-3.5823 1.59984-3.5823 3.5724 0 4.22792 1.3277 8.1511 3.5823 11.3837 2.2555-3.2326 3.5822-7.15478 3.5822-11.3837z" fill="#e64980"/><g fill="#000"><path d="m54.942 27.3738c-1.6204 0-3.0323-.344-4.2356-1.032-1.2034-.704-2.1259-1.704-2.7677-3-.6417-1.312-.9626-2.856-.9626-4.632 0-1.76.3209-3.288.9626-4.584.6418-1.312 1.5643-2.312 2.7677-3 1.2033-.704 2.6152-1.056 4.2356-1.056 1.0589 0 2.0617.168 3.0083.504.9466.32 1.7729.792 2.4788 1.416.3049.24.4573.56.4573.96 0 .288-.0802.536-.2407.744-.1604.192-.3529.288-.5776.288-.2727 0-.5374-.104-.7941-.312-.7702-.576-1.4761-.976-2.1179-1.2-.6257-.24-1.3397-.36-2.1419-.36-1.7648 0-3.1206.568-4.0672 1.704s-1.4199 2.768-1.4199 4.896c0 2.144.4733 3.784 1.4199 4.92s2.3024 1.704 4.0672 1.704c.7701 0 1.4681-.12 2.0938-.36.6418-.24 1.3637-.64 2.166-1.2.3208-.208.5856-.312.7941-.312.2247 0 .4172.104.5776.312.1605.192.2407.432.2407.72 0 .4-.1524.72-.4573.96-.7059.624-1.5322 1.104-2.4788 1.44-.9466.32-1.9494.48-3.0083.48z"/><path d="m68.419 27.3498c-1.1552 0-2.174-.248-3.0565-.744-.8663-.496-1.5402-1.2-2.0215-2.112-.4653-.928-.698-2-.698-3.216 0-1.232.2327-2.304.698-3.216.4813-.928 1.1552-1.64 2.0215-2.136.8825-.496 1.9013-.744 3.0565-.744 1.1551 0 2.1659.248 3.0323.744.8824.496 1.5563 1.208 2.0216 2.136.4813.912.722 1.984.722 3.216 0 1.216-.2407 2.288-.722 3.216-.4653.912-1.1392 1.616-2.0216 2.112-.8664.496-1.8772.744-3.0323.744zm0-1.92c1.0749 0 1.8932-.352 2.4547-1.056.5776-.704.8664-1.736.8664-3.096 0-1.344-.2888-2.368-.8664-3.072-.5776-.72-1.3958-1.08-2.4547-1.08-1.059 0-1.8772.36-2.4548 1.08-.5776.704-.8664 1.728-.8664 3.072 0 1.36.2808 2.392.8423 3.096.5776.704 1.4039 1.056 2.4789 1.056z"/><path d="m83.2306 15.1818c2.8078 0 4.2116 1.576 4.2116 4.728v6.24c0 .368-.1123.656-.3369.864-.2086.192-.5054.288-.8904.288-.3691 0-.6659-.104-.8905-.312-.2086-.208-.3129-.488-.3129-.84v-6.12c0-.992-.2005-1.72-.6016-2.184-.3851-.464-.9948-.696-1.8291-.696-.9786 0-1.7648.304-2.3584.912-.5937.608-.8905 1.424-.8905 2.448v5.64c0 .352-.1123.632-.3369.84-.2086.208-.4974.312-.8664.312s-.6659-.104-.8905-.312-.3369-.488-.3369-.84v-9.768c0-.336.1123-.608.3369-.816.2407-.224.5375-.336.8905-.336s.6337.104.8423.312.3129.48.3129.816v.984c.385-.704.9225-1.24 1.6124-1.608s1.4681-.552 2.3344-.552z"/><path d="m94.8588 27.3498c-1.6365 0-2.9762-.336-4.0191-1.008-.2888-.176-.4973-.36-.6257-.552-.1123-.192-.1685-.408-.1685-.648 0-.256.0722-.472.2166-.648s.3289-.264.5536-.264c.2085 0 .5374.128.9867.384.4813.256.9466.464 1.3958.624.4653.16 1.0429.24 1.7328.24.7701 0 1.3718-.136 1.805-.408s.6498-.656.6498-1.152c0-.32-.0883-.576-.2648-.768-.1604-.192-.4492-.36-.8664-.504-.4171-.16-1.0348-.328-1.8531-.504-1.4119-.304-2.4307-.712-3.0564-1.224-.6097-.528-.9145-1.24-.9145-2.136 0-.688.2006-1.304.6017-1.848.4011-.56.9546-.992 1.6605-1.296.706-.304 1.5082-.456 2.4067-.456.6417 0 1.2675.088 1.8771.264.6097.16 1.1472.4 1.6125.72.5294.352.7942.76.7942 1.224 0 .256-.0803.472-.2407.648-.1444.176-.3209.264-.5295.264-.1444 0-.2888-.032-.4332-.096s-.3369-.168-.5775-.312c-.4332-.256-.8424-.456-1.2274-.6-.369-.144-.8343-.216-1.3959-.216-.6738 0-1.2193.144-1.6365.432-.4011.288-.6016.68-.6016 1.176 0 .448.1845.8.5535 1.056.3851.24 1.099.472 2.1419.696 1.075.224 1.9173.48 2.527.768.6096.288 1.0428.648 1.2995 1.08.2728.416.4092.952.4092 1.608 0 1.04-.4413 1.88-1.3237 2.52-.8664.624-2.0296.936-3.4896.936z"/><path d="m107.48 27.3498c-1.155 0-2.174-.248-3.057-.744-.866-.496-1.54-1.2-2.021-2.112-.466-.928-.698-2-.698-3.216 0-1.232.232-2.304.698-3.216.481-.928 1.155-1.64 2.021-2.136.883-.496 1.902-.744 3.057-.744s2.166.248 3.032.744c.882.496 1.556 1.208 2.022 2.136.481.912.722 1.984.722 3.216 0 1.216-.241 2.288-.722 3.216-.466.912-1.14 1.616-2.022 2.112-.866.496-1.877.744-3.032.744zm0-1.92c1.075 0 1.893-.352 2.454-1.056.578-.704.867-1.736.867-3.096 0-1.344-.289-2.368-.867-3.072-.577-.72-1.395-1.08-2.454-1.08s-1.877.36-2.455 1.08c-.578.704-.866 1.728-.866 3.072 0 1.36.28 2.392.842 3.096.577.704 1.404 1.056 2.479 1.056z"/><path d="m117.189 27.3018c-.353 0-.649-.096-.89-.288-.225-.192-.337-.48-.337-.864v-14.832c0-.384.112-.672.337-.864.241-.208.537-.312.89-.312s.642.104.867.312c.224.192.337.48.337.864v14.832c0 .384-.113.672-.337.864-.225.192-.514.288-.867.288z"/><path d="m130.984 24.2298c.224 0 .409.088.553.264.145.176.217.4.217.672 0 .464-.289.856-.866 1.176-.562.32-1.18.568-1.854.744-.657.176-1.291.264-1.901.264-1.861 0-3.329-.536-4.404-1.608-1.075-1.088-1.612-2.568-1.612-4.44 0-1.2.232-2.264.698-3.192.481-.928 1.147-1.648 1.997-2.16.866-.512 1.845-.768 2.936-.768 1.572 0 2.816.504 3.73 1.512.915 1.008 1.372 2.368 1.372 4.08 0 .64-.289.96-.866.96h-7.437c.161 2.48 1.356 3.72 3.586 3.72.594 0 1.107-.08 1.54-.24.434-.16.891-.368 1.372-.624.048-.032.177-.096.385-.192.225-.112.409-.168.554-.168zm-4.188-7.272c-.93 0-1.676.296-2.238.888-.561.592-.898 1.424-1.011 2.496h6.209c-.048-1.088-.328-1.92-.842-2.496-.497-.592-1.203-.888-2.118-.888z"/></g></svg>