<svg width="32" height="32" viewBox="0 0 32 32" fill="none" xmlns="http://www.w3.org/2000/svg">
<path opacity="0.3" d="M19.983 16C22.5436 17.7817 25.6511 18.8297 29 18.8297C23.392 18.8297 18.8297 23.392 18.8297 29C18.8297 25.651 17.7809 22.5435 16 19.983C17.0804 18.4308 18.4308 17.0804 19.983 16ZM12.017 16C9.45645 17.7817 6.34894 18.8297 3 18.8297C8.60799 18.8297 13.1703 23.392 13.1703 29C13.1703 25.651 14.2191 22.5435 16 19.983C14.9196 18.4308 13.5692 17.0804 12.017 16ZM16 12.0171C14.2183 9.45644 13.1703 6.34894 13.1703 3C13.1703 8.60794 8.60799 13.1703 3 13.1703C6.34894 13.1703 9.45645 14.2183 12.017 16C13.5692 14.9196 14.9196 13.5693 16 12.0171ZM19.983 16C22.5436 14.2183 25.6511 13.1703 29 13.1703C23.392 13.1703 18.8297 8.60794 18.8297 3C18.8297 6.34894 17.7809 9.45644 16 12.0171C17.0804 13.5693 18.4308 14.9196 19.983 16Z" fill="#E64980"/>
<path d="M2.86631 13C1.28362 13 0 14.3426 0 16C0 17.6573 1.28362 19 2.86631 19C6.25858 19 9.40635 17.8889 12 16C9.40635 14.111 6.25938 13 2.86631 13Z" fill="#E64980"/>
<path d="M13 29.1337C13 30.7164 14.3426 32 16 32C17.6574 32 19 30.7164 19 29.1337C19 25.7414 17.8881 22.5937 16 20C14.1111 22.5937 13 25.7406 13 29.1337Z" fill="#E64980"/>
<path d="M29.1337 13C25.7414 13 22.5937 14.111 20 16C22.5937 17.8889 25.7414 19 29.1337 19C30.7164 19 32 17.6573 32 16C32 14.3426 30.7164 13 29.1337 13Z" fill="#E64980"/>
<path d="M19 2.86631C19 1.28363 17.6574 0 16 0C14.3426 0 13 1.28363 13 2.86631C13 6.25857 14.1119 9.40633 16 12C17.8889 9.40633 19 6.25938 19 2.86631Z" fill="#E64980"/>
</svg>
